<?xml version="1.0"?>
<svg width="800" height="600" version="1.1" xmlns="http://www.w3.org/2000/svg">
<title>Complex</title>
<rect x="0" y="0" width="799" height="599" style="stroke:gray;stroke-width:1;fill:transparent;" />
<line x1="0" y1="300" x2="800" y2="300" style="stroke:gainsboro;stroke-width:1" />
<line x1="400" y1="0" x2="400" y2="600" style="stroke:gainsboro;stroke-width:1" />
<text x="400" y="15" style="font-size:1.5;stroke:gray;fill:gray;">100.0j</text>
<text x="400" y="590" style="font-size:1.5;stroke:gray;fill:gray;">-100.0j</text>
<text x="0" y="290" style="font-size:1.5;stroke:gray;fill:gray;">-100.0</text>
<text x="740" y="290" style="font-size:1.5;stroke:gray;fill:gray;">100.0</text>
<line x1="0" y1="599" x2="799" y2="0" style="stroke:black;stroke-width:3" />
<path d="M 400,300 400,300 400,300 400,300 400,300 400,300 400,300 400,300 400,300 400,300 400,300 400,300 400,300 400,300 400,300 400,300 400,300 400,300 400,300 400,300 400,300 400,300 400,300 400,300 400,300 400,300 400,300 400,300 400,300 400,300 400,300 400,300 400,300 400,300 400,300 400,300 400,300 400,300 400,300 400,300 400,300 400,300 400,300 400,300 400,300 400,300 400,300 400,300 400,300 400,300 400,300 400,300 400,300 400,300 400,300 400,300 400,300 400,300 400,300 400,300 400,300 400,300 400,300 400,300 400,300 400,300 400,300 400,300 400,300 400,300 400,300 400,300 400,300 400,300 400,300 400,300 400,300 400,300 400,300 400,300 400,300 400,300 400,300 400,300 400,300 400,300 400,300 400,300 400,300 400,300 400,300 400,300 400,300 400,300 400,300 400,300 400,300 400,300 400,300 400,300 400,300 400,300 400,300 400,300 400,300 400,300 400,300 400,300 400,300 400,300 400,300 400,300 400,300 400,300 400,300 400,300 400,300 400,300 400,300 400,300 400,300 400,300 400,300 400,300 400,300 400,300 400,300 400,300 400,300 400,300 400,300 400,300 400,300 400,300 400,300 400,300 400,300 400,300 400,300 400,300 400,300 400,300 400,300 400,300 400,300 400,300 400,300 400,300 400,300 400,300 400,300 400,300 400,300 400,300 400,300 400,300 400,300 400,300 400,300 400,300 400,300 400,300 400,300 400,300 400,300 400,300 400,300 400,300 400,300 400,300 400,300 400,300 400,300 400,300 400,300 400,300 400,300 400,300 400,300 400,300 400,300 400,300 400,300 400,300 400,300 400,300 400,300 400,300 400,300 400,300 400,300 400,300 400,300 400,300 400,300 400,300 400,300 400,300 400,300 400,300 400,300 400,300 400,300 400,300 400,300 400,300 400,300 400,300 400,300 400,300 400,300 400,300 400,300 400,300 400,300 400,300 400,300 400,300 400,300 400,300 400,300 400,300 400,300 400,300 400,300 400,300 400,300 400,300 400,300 400,300 400,300 400,300 400,300 400,300 400,300 400,300 400,300 400,300 400,300 400,300 400,300 400,300 400,300 400,300 400,300 400,300 400,300 400,300 400,300 400,300 400,300 400,300 400,300 400,300 400,300 400,300 400,300 400,300 400,300 400,300 400,300 400,300 400,300 400,300 400,300 400,300 400,300 400,300 400,300 400,300 400,300 400,300 400,300 400,300 400,300 400,300 400,300 400,300 400,300 400,300 400,300 400,300 400,300 400,300 400,300 400,300 400,300 400,300 400,300 400,300 400,300 400,300 400,300 400,300 400,300 400,300 400,300 400,300 400,300 400,300 400,300 400,300 400,300 400,300 400,300 400,300 400,300 400,300 400,300 400,300 400,300 400,300 400,300 400,300 400,300 400,300 400,300 400,300 400,300 400,300 400,300 400,300 400,300 400,300 400,300 400,300 400,300 400,300 400,300 400,300 400,300 400,300 400,300 400,300 400,300 400,300 400,300 400,300 400,300 400,300 400,300 400,300 400,300 400,300 400,300 400,300 400,300 400,300 400,300 400,300 400,300 400,300 400,300 400,300 400,300 400,300 400,300 400,300 400,300 400,300 400,300 400,300 400,300 400,300 400,300 400,300 400,300 400,300 400,300 400,300 400,300 400,300 400,300 400,300 400,300 400,300 400,300 400,300 400,300 400,300 400,300 400,300 400,300 400,300 400,300 400,300 400,300 400,300 400,300 400,300 400,300 400,300 400,300 400,300 400,300 400,300 400,300 400,300 400,300 400,300 400,300 400,300 400,300 400,300 400,300 400,300 400,300 400,300 400,300 400,300 400,300 400,300 400,300 400,300 400,300 400,300 400,300 400,300 400,300 400,300 400,300 400,300 400,300 400,300 400,300 400,300 400,300 400,300 400,300 400,300 400,300 400,300 400,300 400,300 400,300 400,300 400,300 400,300 400,300 400,300 400,300 400,300 400,300 400,300 400,300 400,300 400,300 400,300 400,300 400,300 400,300 400,300 400,300 400,300 400,300 400,300 400,300 400,300 400,300 400,300 400,300 400,300 400,300 400,300 400,300 400,300 400,300 400,300 400,300 400,300 400,300 400,300 400,300 400,300 400,300 400,300 400,300 400,300 400,300 400,300 400,300 400,300 400,300 400,300 400,300 400,300 400,300 400,300 400,300 400,300 400,300 400,300 400,300 400,300 400,300 400,300 400,300 400,300 400,300 400,300 400,300 400,300 400,300 400,300 400,300 400,300 400,300 400,300 400,300 400,300 400,300 400,300 400,300 400,300 400,300 400,300 400,300 400,300 400,300 400,300 400,300 400,300 400,300 400,300 400,300 400,300 400,300 400,300 400,300 400,300 400,300 400,300 400,300 400,300 400,300 400,300 400,300 400,300 400,300 400,300 400,300 400,300 400,300 400,300 400,300 400,300 400,300 400,300 400,300 400,300 400,300 400,300 400,300 400,300 400,300 400,300 400,300 400,300 400,300 400,300 400,300 400,300 400,300 400,300 400,300 400,300 400,300 400,300 400,300 400,300 400,300 400,300 400,300 400,300 400,300 400,300 400,300 400,300 400,300 400,300 400,300 400,300 400,300 400,300 400,300 400,300 400,300 400,300 400,300 400,300 400,300 400,300 400,300 400,300 400,300 400,300 400,300 400,300 400,300 400,300 400,300 400,300 400,300 400,300 400,300 400,300 400,300 400,300 400,300 400,300 400,300 400,300 400,300 400,300 400,300 400,300 400,300 400,300 400,300 400,300 400,300 400,300 400,300 400,300 400,300 400,300 401,300 401,300 401,300 401,300 401,300 401,300 401,300 401,300 401,300 401,300 401,300 401,300 401,300 401,300 401,300 401,300 401,300 401,300 401,300 401,300 401,300 401,300 401,300 401,300 401,300 401,300 401,300 401,300 401,300 401,300 401,300 401,300 401,300 401,300 401,300 401,300 401,300 401,300 401,300 401,300 401,300 401,300 401,300 401,300 401,300 401,300 401,300 401,300 401,300 401,300 401,300 401,300 401,300 401,300 401,300 401,300 401,300 401,300 401,300 401,300 401,300 401,300 401,300 401,300 401,300 401,300 401,300 401,300 401,300 401,300 401,300 401,300 401,300 401,300 401,300 401,300 401,300 401,300 401,300 401,300 401,300 401,300 401,300 401,300 401,300 401,300 401,300 401,300 401,300 401,300 401,300 401,300 401,300 401,300 401,300 401,300 401,300 401,300 401,300 401,300 401,300 401,300 401,300 401,300 401,300 401,300 401,300 401,300 401,300 401,300 401,300 401,300 401,300 401,300 401,300 401,300 401,300 401,300 401,300 401,300 401,300 401,300 401,300 401,300 401,300 401,300 401,300 401,300 401,300 401,300 401,300 401,300 401,300 401,300 401,300 401,300 401,300 401,300 401,300 401,300 401,300 401,300 401,300 401,300 401,300 401,300 401,300 401,300 401,300 401,300 401,300 401,300 401,300 401,300 401,300 401,300 401,300 401,300 401,300 401,300 401,300 401,300 401,300 401,300 401,300 401,300 401,300 401,300 401,300 401,300 401,300 401,300 401,300 401,300 401,300 401,300 401,300 401,300 401,300 401,300 401,300 401,300 401,300 401,300 401,300 401,300 401,300 401,300 401,300 402,300 402,300 402,300 402,300 402,300 402,300 402,300 402,300 402,300 402,300 402,300 402,300 402,300 402,300 402,300 402,300 402,299 402,299 402,299 402,299 402,299 402,299 402,299 402,299 402,299 402,299 402,299 402,299 402,299 402,299 402,299 402,299 402,299 402,299 402,299 402,299 402,299 402,299 402,299 402,299 402,299 402,299 402,299 402,299 402,299 402,299 402,299 402,299 402,299 402,299 402,299 402,299 402,299 402,299 402,299 402,299 402,299 402,299 402,299 402,299 402,299 402,299 402,299 402,299 402,299 402,299 402,299 402,299 402,299 402,299 402,299 402,299 402,299 402,299 402,299 402,299 402,299 402,299 402,299 402,299 402,299 402,299 402,299 402,299 402,299 402,299 402,299 402,299 402,299 402,299 402,299 402,299 402,299 402,299 402,299 402,299 402,299 402,299 402,299 402,299 402,299 402,299 402,299 402,299 402,299 402,298 402,298 402,298 402,298 402,298 402,298 402,298 402,298 402,298 402,298 402,298 402,298 402,298 402,298 402,298 402,298 402,298 402,298 402,298 402,298 402,298 402,298 402,298 402,298 402,298 402,298 402,298 402,298 402,298 402,298 402,298 402,298 402,298 402,298 402,298 402,298 402,298 402,298 402,298 402,298 402,298 402,298 402,298 402,298 402,298 402,298 402,298 402,298 402,298 402,298 402,298 402,298 402,298 402,298 402,298 402,298 402,298 402,298 401,298 401,298 401,298 401,298 401,297 401,297 401,297 401,297 401,297 401,297 401,297 401,297 401,297 401,297 401,297 401,297 401,297 401,297 401,297 401,297 401,297 401,297 401,297 401,297 401,297 401,297 401,297 401,297 401,297 401,297 401,297 401,297 401,297 401,297 401,297 401,297 401,297 401,297 401,297 401,297 401,297 401,297 401,297 401,297 401,297 401,297 401,297 401,297 401,297 401,297 401,297 401,297 401,297 401,297 401,297 401,297 401,296 401,296 401,296 401,296 401,296 401,296 401,296 401,296 401,296 401,296 401,296 400,296 400,296 400,296 400,296 400,296 400,296 400,296 400,296 400,296 400,296 400,296 400,296 400,296 400,296 400,296 400,296 400,296 400,296 400,296 400,296 400,296 400,296 400,296 400,296 400,296 400,296 400,296 400,296 400,296 400,296 400,296 400,296 400,296 400,296 400,296 400,296 399,296 399,295 399,295 399,295 399,295 399,295 399,295 399,295 399,295 399,295 399,295 399,295 399,295 399,295 399,295 399,295 399,295 399,295 399,295 399,295 399,295 399,295 399,295 399,295 399,295 399,295 399,295 399,295 398,295 398,295 398,295 398,295 398,295 398,295 398,295 398,295 398,295 398,295 398,295 398,295 398,295 398,295 398,295 398,295 398,295 398,295 398,295 398,295 398,295 398,295 397,295 397,295 397,295 397,294 397,294 397,294 397,294 397,294 397,294 397,294 397,294 397,294 397,294 397,294 397,294 397,294 397,294 397,294 397,294 396,294 396,294 396,294 396,294 396,294 396,294 396,294 396,294 396,294 396,294 396,294 396,294 396,294 396,294 396,294 396,294 396,294 395,294 395,294 395,294 395,294 395,294 395,294 395,294 395,294 395,294 395,294 395,294 395,294 395,294 395,294 395,294 394,294 394,294 394,294 394,294 394,294 394,294 394,294 394,294 394,294 394,294 394,294 394,294 394,294 394,294 393,294 393,294 393,294 393,294 393,294 393,294 393,294 393,294 393,294 393,294 393,294 393,294 393,294 392,294 392,294 392,294 392,294 392,294 392,294 392,294 392,294 392,294 392,294 392,294 392,294 391,294 391,294 391,294 391,294 391,294 391,294 391,294 391,294 391,294 391,294 391,294 391,294 390,294 390,294 390,294 390,294 390,294 390,294 390,294 390,294 390,294 390,294 389,294 389,294 389,294 389,294 389,294 389,294 389,294 389,294 389,294 389,294 389,294 388,294 388,294 388,294 388,294 388,294 388,294 388,294 388,294 388,294 388,294 387,294 387,294 387,294 387,294 387,294 387,294 387,294 387,294 387,294 386,294 386,294 386,294 386,294 386,294 386,294 386,294 386,294 386,294 385,294 385,294 385,294 385,294 385,294 385,294 385,294 385,295 385,295 384,295 384,295 384,295 384,295 384,295 384,295 384,295 384,295 384,295 383,295 383,295 383,295 383,295 383,295 383,295 383,295 383,295 382,295 382,295 382,295 382,295 382,295 382,295 382,295 382,295 382,296 381,296 381,296 381,296 381,296 381,296 381,296 381,296 381,296 380,296 380,296 380,296 380,296 380,296 380,296 380,296 380,296 379,296 379,296 379,297 379,297 379,297 379,297 379,297 379,297 378,297 378,297 378,297 378,297 378,297 378,297 378,297 377,297 377,297 377,298 377,298 377,298 377,298 377,298 377,298 376,298 376,298 376,298 376,298 376,298 376,298 376,299 376,299 375,299 375,299 375,299 375,299 375,299 375,299 375,299 374,299 374,299 374,299 374,300 374,300 374,300 374,300 374,300 373,300 373,300 373,300 373,300 373,300 373,301 373,301 372,301 372,301 372,301 372,301 372,301 372,301 372,301 372,302 371,302 371,302 371,302 371,302 371,302 371,302 371,302 370,303 370,303 370,303 370,303 370,303 370,303 370,303 370,303 369,304 369,304 369,304 369,304 369,304 369,304 369,304 369,304 368,305 368,305 368,305 368,305 368,305 368,305 368,306 368,306 367,306 367,306 367,306 367,306 367,306 367,307 367,307 367,307 366,307 366,307 366,307 366,308 366,308 366,308 366,308 366,308 365,308 365,309 365,309 365,309 365,309 365,309 365,309 365,310 365,310 364,310 364,310 364,310 364,311 364,311 364,311 364,311 364,311 364,311 363,312 363,312 363,312 363,312 363,312 363,313 363,313 363,313 363,313 363,314 362,314 362,314 362,314 362,314 362,315 362,315 362,315 362,315 362,315 362,316 362,316 361,316 361,316 361,317 361,317 361,317 361,317 361,317 361,318 361,318 361,318 361,318 361,319 361,319 360,319 360,319 360,320 360,320 360,320 360,320 360,321 360,321 360,321 360,321 360,322 360,322 360,322 360,322 360,323 360,323 360,323 359,324 359,324 359,324 359,324 359,325 359,325 359,325 359,325 359,326 359,326 359,326 359,327 359,327 359,327 359,327 359,328 359,328 359,328 359,329 359,329 359,329 359,330 359,330 359,330 359,330 359,331 359,331 359,331 359,332 359,332 359,332 359,333 359,333 359,333 359,334 359,334 359,334 359,335 359,335 359,335 359,336 359,336 359,336 359,337 359,337 359,337 359,338 359,338 359,338 359,339 360,339 360,339 360,340 360,340 360,340 360,341 360,341 360,341 360,342 360,342 360,342 360,343 360,343 361,344 361,344 361,344 361,345 361,345 361,345 361,346 361,346 361,347 361,347 362,347 362,348 362,348 362,348 362,349 362,349 362,350 363,350 363,350 363,351 363,351 363,352 363,352 363,352 364,353 364,353 364,354 364,354 364,354 365,355 365,355 365,356 365,356 365,356 366,357 366,357 366,358 366,358 366,358 367,359 367,359 367,360 367,360 368,361 368,361 368,361 368,362 369,362 369,363 369,363 369,364 370,364 370,364 370,365 370,365 371,366 371,366 371,367 372,367 372,368 372,368 373,368 373,369 373,369 374,370 374,370 374,371 375,371 375,372 375,372 376,372 376,373 376,373 377,374 377,374 377,375 378,375 378,376 379,376 379,377 379,377 380,377 380,378 381,378 381,379 382,379 382,380 382,380 383,381 383,381 384,382 384,382 385,383 385,383 386,384 386,384 387,384 387,385 388,385 388,386 389,386 389,387 390,387 390,388 391,388 391,389 392,389 393,390 393,390 394,391 394,391 395,392 395,392 396,393 397,393 397,394 398,394 398,394 399,395 400,395 400,396 401,396 402,397 402,397 403,398 404,398 404,399 405,399 406,400 406,400 407,401 408,401 408,402 409,402 410,403 411,403 411,404 412,404 413,405 414,405 414,405 415,406 416,406 417,407 418,407 418,408 419,408 420,409 421,409 422,410 423,410 423,411 424,411 425,412 426,412 427,412 428,413 429,413 430,414 431,414 431,415 432,415 433,416 434,416 435,417 436,417 437,417 438,418 439,418 440,419 441,419 442,420 443,420 444,421 445,421 446,421 447,422 448,422 449,423 450,423 451,424 453,424 454,424 455,425 456,425 457,426 458,426 459,427 460,427 462,427 463,428 464,428 465,429 466,429 467,429 469,430 470,430 471,431 472,431 474,431 475,432 476,432 477,432 479,433 480,433 481,434 482,434 484,434 485,435 486,435 488,435 489,436 490,436 492,436 493,437 495,437 496,437 497,438 499,438 500,438 502,439 503,439 504,439 506,440 507,440 509,440 510,440 512,441 513,441 515,441 516,442 518,442 519,442 521,442 523,443 524,443 526,443 527,443 529,444 530,444 532,444 534,444 535,444 537,445 539,445 540,445 542,445 544,445 545,446 547,446 549,446 551,446 552,446 554,446 556,447 557,447 559,447 561,447 563,447 565,447 566,447 568,448 570,448 572,448 574,448 576,448 578,448 579,448 581,448 583,448 585,448 587,448 589,448 591,448 593,448 595,448 597,448 599,448 601,448 603,448 605,448 607,448 609,448 611,448 613,448 615,448 617,448 619,448 621,448 623,448 625,448 627,448 630,447 632,447 634,447 636,447 638,447 640,447 643,447 645,446 647,446 649,446 651,446 654,446 656,445 658,445 660,445 663,445 665,444 667,444 670,444 672,443 674,443 676,443 679,443 681,442 684,442 686,441 688,441 691,441 693,440 695,440 698,440 700,439 703,439 705,438 708,438 710,437 713,437 715,436 718,436 720,435 723,435 725,434 728,434 730,433 733,432 735,432 738,431 740,431 743,430 745,429 748,429 751,428 753,427 756,427 759,426 761,425 764,425 766,424 769,423 772,422 774,421 777,421 780,420 783,419 785,418 788,417 791,416 793,416 796,415 799,414 802,413 804,412 807,411 810,410 813,409 816,408 818,407 821,406 824,405 827,404 830,403 833,401 835,400 838,399 841,398 844,397 847,396 850,394 853,393 855,392 858,391 861,390 864,388 867,387 870,386 873,384 876,383 879,381 882,380 885,379 888,377 891,376 894,374 896,373 899,371 902,370 905,368 908,367 911,365 914,364 917,362 920,360 923,359 926,357 929,355 932,353 935,352 938,350 941,348 945,346 948,345 951,343 954,341 957,339 960,337 963,335 966,333 969,331 972,329 975,327 978,325 981,323 984,321 987,319 990,317 993,315 " style="stroke:royalblue;stroke-width:3;fill:transparent;" />
</svg>
