<?xml version="1.0"?>
<svg width="1000" height="500" version="1.1" xmlns="http://www.w3.org/2000/svg">
<title>Graph</title>
<rect x="0" y="0" width="999" height="499" style="stroke:gray;stroke-width:1;fill:transparent;" />
<line x1="500" y1="0" x2="500" y2="500" style="stroke:gainsboro;stroke-width:1" />
<line x1="0" y1="250" x2="1000" y2="250" style="stroke:gainsboro;stroke-width:1" />
<text x="0" y="245" style="font-size:1.5;stroke:gray;fill:gray;">-360</text>
<text x="960" y="245" style="font-size:1.5;stroke:gray;fill:gray;">360</text>
<text x="500" y="15" style="font-size:1.5;stroke:gray;fill:gray;">1</text>
<text x="500" y="495" style="font-size:1.5;stroke:gray;fill:gray;">-1</text>
<path d="M  0,0 1,0 3,0 4,0 6,1 7,1 8,1 10,2 11,2 12,3 14,4 15,5 17,5 18,6 19,7 21,9 22,10 24,11 25,12 26,14 28,15 29,17 31,18 32,20 33,22 35,23 36,25 38,27 39,29 40,31 42,33 43,36 44,38 46,40 47,43 49,45 50,48 51,50 53,53 54,56 56,58 57,61 58,64 60,67 61,70 62,73 64,76 65,80 67,83 68,86 69,89 71,93 72,96 74,100 75,103 76,107 78,110 79,114 81,118 82,121 83,125 85,129 86,133 88,137 89,140 90,144 92,148 93,152 94,156 96,160 97,164 99,169 100,173 101,177 103,181 104,185 106,190 107,194 108,198 110,202 111,207 112,211 114,215 115,220 117,224 118,228 119,233 121,237 122,241 124,246 125,250 126,254 128,259 129,263 131,267 132,272 133,276 135,280 136,285 138,289 139,293 140,298 142,302 143,306 144,310 146,315 147,319 149,323 150,327 151,331 153,336 154,340 156,344 157,348 158,352 160,356 161,360 162,363 164,367 165,371 167,375 168,379 169,382 171,386 172,390 174,393 175,397 176,400 178,404 179,407 181,411 182,414 183,417 185,420 186,424 188,427 189,430 190,433 192,436 193,439 194,442 196,444 197,447 199,450 200,452 201,455 203,457 204,460 206,462 207,464 208,467 210,469 211,471 212,473 214,475 215,477 217,478 218,480 219,482 221,483 222,485 224,486 225,488 226,489 228,490 229,491 231,493 232,494 233,495 235,495 236,496 238,497 239,498 240,498 242,499 243,499 244,499 246,500 247,500 249,500 250,500 251,500 253,500 254,500 256,499 257,499 258,499 260,498 261,498 262,497 264,496 265,495 267,495 268,494 269,493 271,491 272,490 274,489 275,488 276,486 278,485 279,483 281,482 282,480 283,478 285,477 286,475 288,473 289,471 290,469 292,467 293,464 294,462 296,460 297,457 299,455 300,452 301,450 303,447 304,444 306,442 307,439 308,436 310,433 311,430 312,427 314,424 315,420 317,417 318,414 319,411 321,407 322,404 324,400 325,397 326,393 328,390 329,386 331,382 332,379 333,375 335,371 336,367 338,363 339,360 340,356 342,352 343,348 344,344 346,340 347,336 349,331 350,327 351,323 353,319 354,315 356,310 357,306 358,302 360,298 361,293 362,289 364,285 365,280 367,276 368,272 369,267 371,263 372,259 374,254 375,250 376,246 378,241 379,237 381,233 382,228 383,224 385,220 386,215 388,211 389,207 390,202 392,198 393,194 394,190 396,185 397,181 399,177 400,173 401,169 403,164 404,160 406,156 407,152 408,148 410,144 411,140 412,137 414,133 415,129 417,125 418,121 419,118 421,114 422,110 424,107 425,103 426,100 428,96 429,93 431,89 432,86 433,83 435,80 436,76 438,73 439,70 440,67 442,64 443,61 444,58 446,56 447,53 449,50 450,48 451,45 453,43 454,40 456,38 457,36 458,33 460,31 461,29 462,27 464,25 465,23 467,22 468,20 469,18 471,17 472,15 474,14 475,12 476,11 478,10 479,9 481,7 482,6 483,5 485,5 486,4 488,3 489,2 490,2 492,1 493,1 494,1 496,0 497,0 499,0 500,0 501,0 503,0 504,0 506,1 507,1 508,1 510,2 511,2 512,3 514,4 515,5 517,5 518,6 519,7 521,9 522,10 524,11 525,12 526,14 528,15 529,17 531,18 532,20 533,22 535,23 536,25 538,27 539,29 540,31 542,33 543,36 544,38 546,40 547,43 549,45 550,48 551,50 553,53 554,56 556,58 557,61 558,64 560,67 561,70 562,73 564,76 565,80 567,83 568,86 569,89 571,93 572,96 574,100 575,103 576,107 578,110 579,114 581,118 582,121 583,125 585,129 586,133 588,137 589,140 590,144 592,148 593,152 594,156 596,160 597,164 599,169 600,173 601,177 603,181 604,185 606,190 607,194 608,198 610,202 611,207 612,211 614,215 615,220 617,224 618,228 619,233 621,237 622,241 624,246 625,250 626,254 628,259 629,263 631,267 632,272 633,276 635,280 636,285 638,289 639,293 640,298 642,302 643,306 644,310 646,315 647,319 649,323 650,327 651,331 653,336 654,340 656,344 657,348 658,352 660,356 661,360 662,363 664,367 665,371 667,375 668,379 669,382 671,386 672,390 674,393 675,397 676,400 678,404 679,407 681,411 682,414 683,417 685,420 686,424 688,427 689,430 690,433 692,436 693,439 694,442 696,444 697,447 699,450 700,452 701,455 703,457 704,460 706,462 707,464 708,467 710,469 711,471 712,473 714,475 715,477 717,478 718,480 719,482 721,483 722,485 724,486 725,488 726,489 728,490 729,491 731,493 732,494 733,495 735,495 736,496 738,497 739,498 740,498 742,499 743,499 744,499 746,500 747,500 749,500 750,500 751,500 753,500 754,500 756,499 757,499 758,499 760,498 761,498 762,497 764,496 765,495 767,495 768,494 769,493 771,491 772,490 774,489 775,488 776,486 778,485 779,483 781,482 782,480 783,478 785,477 786,475 788,473 789,471 790,469 792,467 793,464 794,462 796,460 797,457 799,455 800,452 801,450 803,447 804,444 806,442 807,439 808,436 810,433 811,430 812,427 814,424 815,420 817,417 818,414 819,411 821,407 822,404 824,400 825,397 826,393 828,390 829,386 831,382 832,379 833,375 835,371 836,367 838,363 839,360 840,356 842,352 843,348 844,344 846,340 847,336 849,331 850,327 851,323 853,319 854,315 856,310 857,306 858,302 860,298 861,293 862,289 864,285 865,280 867,276 868,272 869,267 871,263 872,259 874,254 875,250 876,246 878,241 879,237 881,233 882,228 883,224 885,220 886,215 888,211 889,207 890,202 892,198 893,194 894,190 896,185 897,181 899,177 900,173 901,169 903,164 904,160 906,156 907,152 908,148 910,144 911,140 912,137 914,133 915,129 917,125 918,121 919,118 921,114 922,110 924,107 925,103 926,100 928,96 929,93 931,89 932,86 933,83 935,80 936,76 938,73 939,70 940,67 942,64 943,61 944,58 946,56 947,53 949,50 950,48 951,45 953,43 954,40 956,38 957,36 958,33 960,31 961,29 962,27 964,25 965,23 967,22 968,20 969,18 971,17 972,15 974,14 975,12 976,11 978,10 979,9 981,7 982,6 983,5 985,5 986,4 988,3 989,2 990,2 992,1 993,1 994,1 996,0 997,0 999,0 1000,0" style="stroke:black;stroke-width:2;fill:transparent;" />
</svg>
